<svg width="76" height="76" viewBox="0 0 76 76" fill="none" xmlns="http://www.w3.org/2000/svg">
<g filter="url(#filter0_d_1657_22516)">
<rect x="14" y="10" width="48" height="48" rx="24" fill="#00A3ED" shape-rendering="crispEdges"/>
<path d="M34 35.5H42M34 30.5H38" stroke="white" stroke-width="1.5" stroke-linecap="round" stroke-linejoin="round"/>
<path d="M32.0988 41C30.7987 40.8721 29.8248 40.4816 29.1716 39.8284C28 38.6569 28 36.7712 28 33V32.5C28 28.7288 28 26.8432 29.1716 25.6716C30.3432 24.5 32.2288 24.5 36 24.5H40C43.7712 24.5 45.6569 24.5 46.8284 25.6716C48 26.8432 48 28.7288 48 32.5V33C48 36.7712 48 38.6569 46.8284 39.8284C45.6569 41 43.7712 41 40 41C39.4395 41.0125 38.9931 41.0551 38.5546 41.155C37.3562 41.4309 36.2465 42.0441 35.1499 42.5789C33.5873 43.3408 32.806 43.7218 32.3157 43.3651C31.3777 42.6665 32.2945 40.5019 32.5 39.5" stroke="white" stroke-width="1.5" stroke-linecap="round"/>
</g>
<defs>
<filter id="filter0_d_1657_22516" x="0" y="0" width="76" height="76" filterUnits="userSpaceOnUse" color-interpolation-filters="sRGB">
<feFlood flood-opacity="0" result="BackgroundImageFix"/>
<feColorMatrix in="SourceAlpha" type="matrix" values="0 0 0 0 0 0 0 0 0 0 0 0 0 0 0 0 0 0 127 0" result="hardAlpha"/>
<feOffset dy="4"/>
<feGaussianBlur stdDeviation="7"/>
<feComposite in2="hardAlpha" operator="out"/>
<feColorMatrix type="matrix" values="0 0 0 0 0 0 0 0 0 0.639216 0 0 0 0 0.929412 0 0 0 0.3 0"/>
<feBlend mode="normal" in2="BackgroundImageFix" result="effect1_dropShadow_1657_22516"/>
<feBlend mode="normal" in="SourceGraphic" in2="effect1_dropShadow_1657_22516" result="shape"/>
</filter>
</defs>
</svg>
