<svg width="1440" height="213" viewBox="0 0 1440 213" fill="none" xmlns="http://www.w3.org/2000/svg">
<path d="M892.008 346.316C781.117 346.316 693.42 310.711 608.594 276.291C524.432 242.124 437.361 206.796 328.016 206.796C218.671 206.796 131.6 242.124 47.4371 276.291C2.33691 294.598 -44.3096 313.535 -93.9751 326.9L-96 323.369C-46.7763 310.106 -0.313881 291.27 44.6023 273.013C129.428 238.593 217.124 202.989 328.016 202.989C438.907 202.989 526.604 238.593 611.429 273.013C695.592 307.181 782.663 342.533 892.008 342.533C1001.35 342.533 1088.42 307.206 1172.59 273.013C1257.41 238.568 1345.11 202.989 1456 202.989V206.771C1346.62 206.771 1259.58 242.098 1175.42 276.266C1090.6 310.711 1002.9 346.291 892.008 346.291V346.316Z" fill="#0137D5" fill-opacity="0.2"/>
<path d="M892.008 320.946C781.117 320.946 693.42 285.341 608.594 250.922C524.432 216.754 437.361 181.427 328.016 181.427C218.671 181.427 131.6 216.754 47.4371 250.922C2.33691 269.228 -44.3096 288.165 -93.9751 301.53L-96 298C-46.7763 284.736 -0.313881 265.9 44.6023 247.644C129.428 213.224 217.124 177.619 328.016 177.619C438.907 177.619 526.604 213.224 611.429 247.644C695.592 281.811 782.663 317.164 892.008 317.164C1001.35 317.164 1088.42 281.836 1172.59 247.644C1257.41 213.224 1345.11 177.619 1456 177.619V181.401C1346.62 181.401 1259.58 216.729 1175.42 250.896C1090.6 285.316 1002.9 320.921 892.008 320.921V320.946Z" fill="#0137D5" fill-opacity="0.2"/>
<path d="M892.008 295.554C781.117 295.554 693.42 259.949 608.594 225.53C524.432 191.362 437.361 156.035 328.016 156.035C218.671 156.035 131.6 191.362 47.4371 225.53C2.33691 243.836 -44.3096 262.774 -93.9751 276.138L-96 272.608C-46.7763 259.344 -0.313881 240.508 44.6023 222.252C129.428 187.832 217.124 152.227 328.016 152.227C438.907 152.227 526.604 187.832 611.429 222.252C695.592 256.419 782.663 291.772 892.008 291.772C1001.35 291.772 1088.42 256.444 1172.59 222.252C1257.41 187.832 1345.11 152.227 1456 152.227V156.009C1346.62 156.009 1259.58 191.337 1175.42 225.504C1090.6 259.924 1002.9 295.529 892.008 295.529V295.554Z" fill="#0137D5" fill-opacity="0.2"/>
<path d="M892.008 270.184C781.117 270.184 693.42 234.58 608.594 200.16C524.432 165.992 437.361 130.665 328.016 130.665C218.671 130.665 131.6 165.992 47.4371 200.16C2.33691 218.467 -44.3096 237.404 -93.9751 250.768L-96 247.238C-46.7763 233.974 -0.313881 215.138 44.6023 196.882C129.428 162.462 217.124 126.857 328.016 126.857C438.907 126.857 526.604 162.462 611.429 196.882C695.592 231.049 782.663 266.377 892.008 266.377C1001.35 266.377 1088.42 231.049 1172.59 196.882C1257.41 162.437 1345.11 126.857 1456 126.857V130.64C1346.62 130.64 1259.58 165.967 1175.42 200.135C1090.6 234.58 1002.9 270.159 892.008 270.159V270.184Z" fill="#0137D5" fill-opacity="0.2"/>
<path d="M892.008 244.822C781.117 244.822 693.42 209.217 608.594 174.797C524.432 140.629 437.361 105.302 328.016 105.302C218.671 105.302 131.6 140.629 47.4371 174.797C2.33691 193.104 -44.3096 212.041 -93.9751 225.405L-96 221.875C-46.7763 208.611 -0.313881 189.75 44.6023 171.519C129.428 137.099 217.124 101.494 328.016 101.494C438.907 101.494 526.604 137.099 611.429 171.519C695.592 205.686 782.663 241.014 892.008 241.014C1001.35 241.014 1088.42 205.686 1172.59 171.519C1257.41 137.099 1345.11 101.494 1456 101.494V105.277C1346.62 105.277 1259.58 140.604 1175.42 174.772C1090.6 209.191 1002.9 244.796 892.008 244.796V244.822Z" fill="#0137D5" fill-opacity="0.2"/>
<path d="M892.008 219.452C781.117 219.452 693.42 183.847 608.594 149.427C524.432 115.26 437.361 79.9322 328.016 79.9322C218.671 79.9322 131.6 115.26 47.4371 149.427C2.33691 167.734 -44.3096 186.671 -93.9751 200.036L-96 196.505C-46.7763 183.242 -0.313881 164.405 44.6023 146.149C129.428 111.729 217.124 76.1246 328.016 76.1246C438.907 76.1246 526.604 111.729 611.429 146.149C695.592 180.317 782.663 215.644 892.008 215.644C1001.35 215.644 1088.42 180.317 1172.59 146.149C1257.41 111.704 1345.11 76.1246 1456 76.1246V79.907C1346.62 79.907 1259.58 115.234 1175.42 149.402C1090.6 183.847 1002.9 219.427 892.008 219.427V219.452Z" fill="#0137D5" fill-opacity="0.2"/>
<path d="M892.008 194.084C781.117 194.084 693.42 158.479 608.594 124.059C524.432 89.8917 437.361 54.5642 328.016 54.5642C218.671 54.5642 131.6 89.8917 47.4371 124.059C2.33691 142.366 -44.3096 161.303 -93.9751 174.668L-96 171.137C-46.7763 157.874 -0.313881 139.037 44.6023 120.781C129.428 86.3614 217.124 50.7566 328.016 50.7566C438.907 50.7566 526.604 86.3614 611.429 120.781C695.592 154.949 782.663 190.276 892.008 190.276C1001.35 190.276 1088.42 154.949 1172.59 120.781C1257.41 86.3614 1345.11 50.7566 1456 50.7566V54.539C1346.62 54.539 1259.58 89.8664 1175.42 124.034C1090.6 158.454 1002.9 194.059 892.008 194.059V194.084Z" fill="#0137D5" fill-opacity="0.2"/>
<path d="M892.008 168.715C781.117 168.715 693.42 133.11 608.594 98.6907C524.432 64.5232 437.361 29.1705 328.016 29.1705C218.671 29.1705 131.6 64.498 47.4371 98.6655C2.33691 116.972 -44.3096 135.909 -93.9751 149.274L-96 145.744C-46.7763 132.48 -0.313881 113.644 44.6023 95.3875C129.428 60.9678 217.124 25.3629 328.016 25.3629C438.907 25.3629 526.604 60.9678 611.429 95.3875C695.592 129.555 782.663 164.908 892.008 164.908C1001.35 164.908 1088.42 129.58 1172.59 95.3875C1257.41 60.9678 1345.11 25.3629 1456 25.3629V29.1453C1346.62 29.1453 1259.58 64.4728 1175.42 98.6655C1090.6 133.085 1002.9 168.69 892.008 168.69V168.715Z" fill="#0137D5" fill-opacity="0.2"/>
<path d="M892.008 143.327C781.117 143.327 693.42 107.722 608.594 73.3026C524.432 39.1351 437.361 3.8076 328.016 3.8076C218.671 3.8076 131.6 39.1351 47.4371 73.3026C2.33691 91.6093 -44.3096 110.546 -93.9751 123.911L-96 120.381C-46.7763 107.117 -0.313881 88.2556 44.6023 70.0245C129.391 35.6048 217.088 0 327.979 0C438.87 0 526.567 35.6048 611.392 70.0245C695.555 104.192 782.626 139.52 891.971 139.52C1001.32 139.52 1088.39 104.192 1172.55 70.0245C1257.38 35.5796 1345.07 0 1455.96 0V3.78238C1346.58 3.78238 1259.55 39.1099 1175.38 73.2774C1090.56 107.722 1002.86 143.302 891.971 143.302L892.008 143.327Z" fill="#0137D5" fill-opacity="0.2"/>
</svg>
