<svg width="24" height="24" viewBox="0 0 24 24" fill="none" xmlns="http://www.w3.org/2000/svg">
<path d="M7.75 4H21.75" stroke="#E9EBF8" stroke-width="1.5" stroke-linecap="round" stroke-linejoin="round"/>
<path d="M3.75 4.3575V3.6425C3.75 3.3625 3.6375 3.25 3.355 3.25H2.6425C2.3625 3.25 2.25 3.3625 2.25 3.6425V4.355C2.25 4.6375 2.3625 4.75 2.6425 4.75H3.355C3.6375 4.75 3.75 4.6375 3.75 4.3575Z" stroke="#E9EBF8" stroke-width="1.5" stroke-linecap="round" stroke-linejoin="round"/>
<path d="M7.75 12H21.75" stroke="#E9EBF8" stroke-width="1.5" stroke-linecap="round" stroke-linejoin="round"/>
<path d="M3.75 12.3575V11.6425C3.75 11.3625 3.6375 11.25 3.355 11.25H2.6425C2.3625 11.25 2.25 11.3625 2.25 11.6425V12.355C2.25 12.6375 2.3625 12.75 2.6425 12.75H3.355C3.6375 12.75 3.75 12.6375 3.75 12.3575Z" stroke="#E9EBF8" stroke-width="1.5" stroke-linecap="round" stroke-linejoin="round"/>
<path d="M7.75 20H21.75" stroke="#E9EBF8" stroke-width="1.5" stroke-linecap="round" stroke-linejoin="round"/>
<path d="M3.75 20.3575V19.6425C3.75 19.3625 3.6375 19.25 3.355 19.25H2.6425C2.3625 19.25 2.25 19.3625 2.25 19.6425V20.355C2.25 20.6375 2.3625 20.75 2.6425 20.75H3.355C3.6375 20.75 3.75 20.6375 3.75 20.3575Z" stroke="#E9EBF8" stroke-width="1.5" stroke-linecap="round" stroke-linejoin="round"/>
</svg>
