<svg width="24" height="24" viewBox="0 0 24 24" fill="none" xmlns="http://www.w3.org/2000/svg">
<path d="M5.5 5.76813L8.81934 4.71607L14.787 2.76633C18.2479 1.6356 19.3942 2.22896 20.5433 5.74601L21.0219 6.94978" stroke="#E9EBF8" stroke-width="1.5" stroke-linecap="round" stroke-linejoin="round"/>
<path d="M16.9959 5.94836H6.99586C3.16586 5.94836 2.09586 6.86836 2.00586 10.4484C3.93586 10.4484 5.49586 12.0184 5.49586 13.9484C5.49586 15.8784 3.93586 17.4384 2.00586 17.4484C2.09586 21.0284 3.16586 21.9484 6.99586 21.9484H16.9959C20.9959 21.9484 21.9959 20.9484 21.9959 16.9484V10.9484C21.9959 6.94836 20.9959 5.94836 16.9959 5.94836Z" stroke="#E9EBF8" stroke-width="1.5" stroke-linecap="round" stroke-linejoin="round"/>
<path d="M8.99414 5.94836V9.44836" stroke="#E9EBF8" stroke-width="1.5" stroke-linecap="round" stroke-linejoin="round"/>
<path d="M8.99414 18.4484V21.9484" stroke="#E9EBF8" stroke-width="1.5" stroke-linecap="round" stroke-linejoin="round"/>
<path d="M15.024 11.2784L15.644 12.5284C15.704 12.6484 15.824 12.7384 15.954 12.7584L17.334 12.9584C17.674 13.0084 17.814 13.4284 17.564 13.6684L16.564 14.6384C16.464 14.7284 16.424 14.8684 16.444 15.0084L16.684 16.3784C16.744 16.7184 16.384 16.9784 16.084 16.8184L14.854 16.1684C14.734 16.1084 14.584 16.1084 14.464 16.1684L13.234 16.8184C12.924 16.9784 12.574 16.7184 12.634 16.3784L12.874 15.0084C12.894 14.8684 12.854 14.7384 12.754 14.6384L11.764 13.6684C11.514 13.4284 11.654 13.0084 11.994 12.9584L13.374 12.7584C13.514 12.7384 13.624 12.6584 13.684 12.5284L14.294 11.2784C14.434 10.9684 14.874 10.9684 15.024 11.2784Z" stroke="#E9EBF8" stroke-width="1.5" stroke-linecap="round" stroke-linejoin="round"/>
</svg>
